<svg xmlns="http://www.w3.org/2000/svg" width="3139.124" height="3285.375">
  <g xmlns="http://www.w3.org/2000/svg" fill="#cecbc8" >
    <path d="M2014.826 538.813c-96.59 90.241-363.536 501.075-363.536 501.075s-19.811-317.295-35.64-478.878c-15.849-161.582-12.654-191.683-22.176-237.634s-86.175-123.743-95.365 69.62c-9.19 193.365 31.304 615.774 31.304 615.774s-319.348-355.9-382.724-425.625c-63.376-69.703-161.604-82.378-60.202 66.55 101.401 148.929 246.679 312.047 282.007 361.212 66.654 92.772 155.028 143.182 129.594 386.542-28.856 275.95-79.287 390.877-32.217 403.946 51.635 14.315 96.216 44.27 114.679-15.952 18.504-60.202 53.916-220.997 76.28-353.101 23.503-138.743 16.056-205.873 56.405-268.669 35.163-54.704 144.655-186.705 238.878-329.513 92.191-139.76 111.11-198.053 128.453-237.074 15.352-34.54 18.09-136.523-65.74-58.273z"/>
    <path d="M1545.823 243.135c17.965-.975 20.392-32.86 17.363-50.452-3.05-17.592-20.517-49.996-20.517-49.996s-19.313 36.055-20.87 53.875c-1.513 17.302 6.058 47.569 24.024 46.573zM1032.737 476.537c-8.838-11.825-33.898-29.168-33.898-29.168s-.684 33.815 4.855 47.548c5.372 13.318 22.321 32.798 35.204 25.33 12.862-7.448 2.676-31.865-6.161-43.71zM2100.025 447.867c-9.439 10.808-19.168 34.707-6.7 42.818 12.467 8.132 29.706-11.97 36.22-25.185 6.597-13.235 10.767-43.419 10.767-43.419s-30.495 14.646-40.287 25.786zM1487.654 1845.79c-24.915-7.53-43.98 34.644-48.544 60.057-4.564 25.454 3.174 78.146 3.174 78.146s44.063-39.478 54.995-62.982c10.622-22.799 15.29-67.69-9.625-75.221z"/>
  </g>
</svg>
