
        <svg xmlns="http://www.w3.org/2000/svg" xmlns:xlink="http://www.w3.org/1999/xlink" version="1.1" width="3139.124352975603" 
        height="3285.3749411796002" viewBox="0 0 3139.124352975603 3285.3749411796002">
			
			<g transform="scale(14.268747058980013) translate(10, 10)">
				<defs id="SvgjsDefs1073"></defs><g id="SvgjsG1074" featureKey="symbolFeature-0" transform="matrix(1.4538767965810513,0,0,1.4538767965810513,52.47807228107135,-8.242027082853394)" fill="currentColor"><g xmlns="http://www.w3.org/2000/svg"><path d="M54.15,24.764c-4.656,4.35-17.524,24.154-17.524,24.154s-0.955-15.295-1.718-23.084c-0.764-7.789-0.61-9.24-1.069-11.455   s-4.154-5.965-4.597,3.356c-0.443,9.321,1.509,29.683,1.509,29.683S15.357,30.262,12.302,26.901   c-3.055-3.36-7.79-3.971-2.902,3.208c4.888,7.179,11.891,15.042,13.594,17.412c3.213,4.472,7.473,6.902,6.247,18.633   c-1.391,13.302-3.822,18.842-1.553,19.472c2.489,0.69,4.638,2.134,5.528-0.769c0.892-2.902,2.599-10.653,3.677-17.021   c1.133-6.688,0.774-9.924,2.719-12.951c1.695-2.637,6.973-9,11.515-15.884c4.444-6.737,5.356-9.547,6.192-11.428   C58.059,25.908,58.191,20.992,54.15,24.764z"></path><path d="M31.542,10.511c0.866-0.047,0.983-1.584,0.837-2.432c-0.147-0.848-0.989-2.41-0.989-2.41s-0.931,1.738-1.006,2.597   C30.311,9.1,30.676,10.559,31.542,10.511z"></path><path d="M6.809,21.762c-0.426-0.57-1.634-1.406-1.634-1.406s-0.033,1.63,0.234,2.292c0.259,0.642,1.076,1.581,1.697,1.221   C7.726,23.51,7.235,22.333,6.809,21.762z"></path><path d="M58.257,20.38c-0.455,0.521-0.924,1.673-0.323,2.064c0.601,0.392,1.432-0.577,1.746-1.214   c0.318-0.638,0.519-2.093,0.519-2.093S58.729,19.843,58.257,20.38z"></path><path d="M28.738,87.766c-1.201-0.363-2.12,1.67-2.34,2.895c-0.22,1.227,0.153,3.767,0.153,3.767s2.124-1.903,2.651-3.036   C29.714,90.293,29.939,88.129,28.738,87.766z"></path></g></g><g id="SvgjsG1075" featureKey="nameFeature-0" transform="matrix(2.2551441518726167,0,0,2.2551441518726167,-7.306670837251859,119.14189839738727)" fill="currentColor"><path d="M12.04 30.4 c-0.2 0 -0.36 -0.16 -0.36 -0.36 l0 -4.28 c0 -0.2 0.16 -0.36 0.36 -0.36 l9.16 0 c0.2 0 0.36 0.16 0.36 0.36 l0 6.28 c0 5.88 -3.16 8.36 -9.12 8.36 c-5.56 0 -9.2 -2.2 -9.2 -8.36 l0 -10.52 c0 -5.8 3.24 -8.28 9.2 -8.28 c5.6 0 9.12 2.16 9.12 8.28 l0 0.84 c0 0.2 -0.16 0.36 -0.36 0.36 l-4.6 0 c-0.2 0 -0.36 -0.16 -0.36 -0.36 l0 -0.52 c0 -2.44 -1.56 -3.24 -3.6 -3.24 l-0.48 0 c-1.32 0 -2.2 0.36 -2.8 1.16 c-0.56 0.76 -0.76 1.76 -0.76 3.08 l0 7.92 c0 3.48 1.88 4.24 3.56 4.24 l0.48 0 c2.44 0 3.6 -1.68 3.6 -4.24 l0 -0.36 l-4.2 0 z M5.68 31.759999999999998 c0 4.44 2.16 6.08 6.72 6.08 c4.8 0 6.76 -2 6.76 -6.92 l0 -3 c0 -0.12 -0.08 -0.28 -0.16 -0.28 l-5.56 0 c-0.36 0 -0.28 0.52 0 0.52 l5.24 0 l0 2.76 c0 4.28 -1.64 6.48 -6.28 6.48 c-3.84 0 -6.24 -1.36 -6.24 -5.64 l0 -9.64 c0 -4.12 1.88 -5.96 6.24 -5.96 c3.24 0 6.2 1.8 5.96 4.56 c0 0.32 0.44 0.4 0.52 0.04 c0 -3.52 -3.2 -5.04 -6.48 -5.04 c-4 0 -6.72 1.44 -6.72 6.4 l0 9.64 z M33.36 13.84 c0.04 -0.12 0.12 -0.24 0.28 -0.24 l4.96 0 c0.16 0 0.24 0.12 0.28 0.24 l6.92 25.72 c0.04 0.24 -0.12 0.44 -0.36 0.44 l-4.56 0 c-0.12 0 -0.24 -0.08 -0.28 -0.24 l-1.56 -5.6 l-5.84 0 l-1.52 5.6 c-0.04 0.16 -0.12 0.24 -0.28 0.24 l-4.6 0 c-0.24 0 -0.4 -0.2 -0.36 -0.44 z M34.480000000000004 29.2 l3.32 0 l-1.72 -6.04 z M40.64 31.560000000000002 l1.84 6 c0.08 0.24 0.52 0.2 0.4 -0.12 l-6.4 -21.28 c-0.12 -0.52 -0.8 -0.56 -0.92 0 l-6.2 21.28 c-0.12 0.28 0.32 0.4 0.44 0.16 l1.76 -6.04 l9.08 0 z M31.68 31.04 l4.36 -14.72 l4.44 14.72 l-8.8 0 z M54.8 13.84 l4.4 16.56 l4.52 -16.56 c0.08 -0.12 0.16 -0.24 0.32 -0.24 l4.56 0 c0.24 0 0.4 0.2 0.32 0.44 l-6.92 25.72 c-0.08 0.16 -0.16 0.24 -0.32 0.24 l-4.96 0 c-0.12 0 -0.24 -0.08 -0.28 -0.24 l-6.92 -25.72 c-0.04 -0.24 0.12 -0.44 0.36 -0.44 l4.6 0 c0.16 0 0.24 0.12 0.32 0.24 z M59.120000000000005 37.24 l-6.68 -21.32 c-0.12 -0.32 -0.56 -0.12 -0.44 0.12 l6.64 21.36 c0.16 0.6 0.8 0.64 1 0 l6.4 -21.36 c0.08 -0.24 -0.36 -0.4 -0.44 -0.12 z M79.48 13.84 c0.04 -0.12 0.12 -0.24 0.28 -0.24 l4.96 0 c0.16 0 0.24 0.12 0.28 0.24 l6.92 25.72 c0.04 0.24 -0.12 0.44 -0.36 0.44 l-4.56 0 c-0.12 0 -0.24 -0.08 -0.28 -0.24 l-1.56 -5.6 l-5.84 0 l-1.52 5.6 c-0.04 0.16 -0.12 0.24 -0.28 0.24 l-4.6 0 c-0.24 0 -0.4 -0.2 -0.36 -0.44 z M80.6 29.2 l3.32 0 l-1.72 -6.04 z M86.75999999999999 31.560000000000002 l1.84 6 c0.08 0.24 0.52 0.2 0.4 -0.12 l-6.4 -21.28 c-0.12 -0.52 -0.8 -0.56 -0.92 0 l-6.2 21.28 c-0.12 0.28 0.32 0.4 0.44 0.16 l1.76 -6.04 l9.08 0 z M77.8 31.04 l4.36 -14.72 l4.44 14.72 l-8.8 0 z"></path></g>
			</g>
		</svg>
	