<svg width="1143" height="1842" viewBox="0 0 1143 1842" fill="currentColor" xmlns="http://www.w3.org/2000/svg">
<g id="Group">
<g id="SvgjsG1074">
<g id="Group_2">
<path id="Vector" d="M653.29 897.888C652.804 897.919 652.791 897.918 652.791 897.916C652.791 897.913 652.79 897.91 652.79 897.905C652.789 897.895 652.789 897.88 652.788 897.861C652.786 897.823 652.782 897.765 652.777 897.688C652.768 897.535 652.753 897.307 652.734 897.005C652.696 896.399 652.64 895.499 652.565 894.317C652.416 891.954 652.195 888.466 651.909 883.97C651.336 874.979 650.5 861.953 649.448 845.818C647.344 813.548 644.373 768.837 640.907 719.078C633.976 619.556 625.066 499.843 617.152 419.059C609.227 338.261 606.063 290.334 603.69 256.867C601.318 223.399 599.738 204.417 594.984 181.478C592.622 170.079 586.085 156.672 577.46 145.992C568.82 135.294 558.178 127.444 547.643 126.943C537.188 126.446 526.591 133.195 518.004 152.287C509.415 171.382 502.905 202.701 500.608 251.02C496.015 347.669 503.838 501.586 512.813 631.361C517.301 696.244 522.075 755.085 525.727 797.705C527.554 819.015 529.1 836.27 530.189 848.197C530.734 854.16 531.165 858.792 531.459 861.932C531.606 863.503 531.719 864.701 531.795 865.506C531.833 865.908 531.862 866.212 531.882 866.416C531.891 866.518 531.898 866.595 531.903 866.646C531.906 866.672 531.908 866.691 531.909 866.704C531.91 866.71 531.911 866.715 531.911 866.719C531.91 866.722 531.89 866.725 531.413 866.77M653.29 897.888C653.708 898.16 653.711 898.159 653.713 898.156C653.715 898.153 653.718 898.148 653.722 898.141C653.73 898.129 653.742 898.11 653.758 898.086C653.79 898.036 653.839 897.962 653.903 897.863C654.032 897.665 654.224 897.369 654.478 896.979C654.986 896.199 655.741 895.04 656.73 893.525C658.709 890.494 661.623 886.037 665.367 880.333C672.855 868.923 683.66 852.524 696.927 832.562C723.461 792.638 759.845 738.466 799.248 681.475C838.651 624.484 881.071 564.675 919.674 513.477C957.681 463.069 991.968 421.037 1016.03 398.249L1017.17 397.178C1038.11 377.63 1053.55 369.437 1064.66 368.548C1070.2 368.105 1074.66 369.473 1078.21 372.156C1081.78 374.846 1084.48 378.884 1086.42 383.836C1090.32 393.749 1091.16 407.201 1090.06 420.363C1088.96 433.519 1085.92 446.312 1082.11 454.883C1065.04 493.297 1046.45 550.349 957.963 685.394L953.696 691.885C906.593 763.275 855.672 831.967 812.127 889.654C768.592 947.328 732.409 994.03 714.814 1021.4C694.583 1052.89 686.344 1085.45 680.221 1127.45C674.093 1169.49 670.09 1220.88 658.336 1290.26C635.974 1422.36 600.567 1583.12 582.072 1643.3V1643.3C577.474 1658.29 571.273 1667.6 563.811 1672.95C556.357 1678.29 547.573 1679.74 537.693 1678.87C527.803 1678 516.862 1674.82 505.134 1670.94C494.156 1667.3 482.488 1663.06 470.423 1659.6L468.005 1658.91C462.237 1657.31 457.983 1654.16 454.982 1649.34C451.971 1644.5 450.205 1637.95 449.488 1629.53C448.054 1612.67 450.834 1588.52 456.001 1556.08C466.329 1491.24 486.156 1393.49 500.586 1255.5C513.31 1133.75 497.571 1060.21 470.271 1005.48C456.626 978.129 440.1 955.494 422.83 933.908C405.55 912.31 387.554 891.796 370.9 868.616C353.224 844.017 308.049 790.917 254.655 725.396C201.247 659.858 139.588 581.859 88.9003 507.414C63.5605 470.197 50.7311 443.129 46.6913 424.559C44.6717 415.275 44.8596 408.164 46.7333 402.983C48.5986 397.826 52.146 394.543 56.957 392.907C61.7906 391.263 67.929 391.274 74.9472 392.792C81.9597 394.308 89.8138 397.321 98.0536 401.637C114.533 410.271 132.511 424.095 148.319 441.482V441.481C180.006 476.342 275.686 582.747 363.445 680.438C407.325 729.284 449.224 775.951 480.153 810.406C495.618 827.633 508.339 841.808 517.195 851.676C521.623 856.609 525.085 860.467 527.439 863.091C528.617 864.402 529.517 865.406 530.123 866.082C530.426 866.419 530.656 866.675 530.81 866.846C530.886 866.932 530.945 866.997 530.983 867.04C531.003 867.061 531.017 867.078 531.026 867.089C531.031 867.094 531.036 867.098 531.038 867.1C531.041 867.103 531.051 867.095 531.413 866.77M653.29 897.888L653.71 898.161L652.886 899.428L652.791 897.92L653.29 897.888ZM531.413 866.77L531.041 867.104L532.057 868.235L531.911 866.722L531.413 866.77Z" fill="currentColor" stroke="currentColor"/>
<path id="Vector_2" d="M544.983 2.34668C545.466 3.26536 546.16 4.59778 547.001 6.25195C548.684 9.56058 550.96 14.1552 553.33 19.2979C557.931 29.2784 562.862 41.2688 564.541 49.9395L564.693 50.7686C566.198 59.5098 566.346 71.8089 563.891 82.0234C562.663 87.1308 560.794 91.6802 558.149 95.0029C555.515 98.3132 552.12 100.401 547.796 100.636H547.795C539.154 101.115 532.901 94.0832 528.969 84.5195C525.051 74.9914 523.547 63.1795 524.298 54.6055C525.068 45.7914 530.248 32.3963 535.274 21.1465C537.782 15.5345 540.242 10.4772 542.074 6.82324C542.99 4.99659 543.75 3.52063 544.28 2.50195C544.429 2.21647 544.56 1.96719 544.671 1.75586C544.762 1.92799 544.867 2.12508 544.983 2.34668Z" fill="currentColor" stroke="currentColor"/>
<path id="Vector_3" d="M1.64438 306.546C2.34525 307.042 3.35688 307.764 4.59848 308.668C7.08217 310.476 10.4855 313.009 14.1639 315.911C21.536 321.727 29.9611 328.983 34.3358 334.836C38.7214 340.715 43.4438 349.719 45.4686 358.157C46.481 362.377 46.8098 366.418 46.1141 369.841C45.4215 373.249 43.7174 376.036 40.6473 377.814C34.5021 381.376 27.2908 378.569 20.8055 372.997C14.3493 367.45 8.81477 359.317 6.15707 352.73C3.42359 345.952 2.21003 334.148 1.68832 323.968C1.42821 318.892 1.34152 314.244 1.31918 310.864C1.30802 309.175 1.31228 307.803 1.32016 306.854C1.32178 306.658 1.32428 306.48 1.32602 306.321C1.42352 306.39 1.52997 306.465 1.64438 306.546Z" fill="white" stroke="black"/>
<path id="Vector_4" d="M1141.63 281.33C1141.5 282.179 1141.31 283.408 1141.06 284.924C1140.57 287.956 1139.84 292.136 1138.91 296.728C1137.05 305.931 1134.36 316.726 1131.1 323.277L1131.1 323.279C1127.87 329.836 1121.97 338.107 1115.34 343.716C1112.03 346.521 1108.57 348.636 1105.2 349.557C1101.94 350.445 1098.78 350.223 1095.88 348.443L1095.6 348.266C1089.65 344.397 1088.9 336.704 1090.95 328.407C1092.98 320.148 1097.73 311.542 1102.4 306.195C1107.23 300.697 1117.23 294.289 1126.09 289.231C1130.5 286.708 1134.62 284.533 1137.62 282.988C1139.13 282.216 1140.35 281.602 1141.2 281.181C1141.38 281.094 1141.54 281.015 1141.68 280.945C1141.66 281.063 1141.65 281.192 1141.63 281.33Z" fill="currentColor" stroke="currentColor"/>
<path id="Vector_5" d="M472.462 1706.85C477.725 1703.62 483.442 1702.43 489.51 1704.27C501.639 1707.93 506.675 1720.73 507.293 1735.7C507.89 1750.16 504.338 1766.42 499.316 1777.72L498.826 1778.8C493.4 1790.47 479.712 1806.15 467.323 1818.97C461.139 1825.37 455.295 1831.03 450.997 1835.09C448.848 1837.13 447.086 1838.76 445.861 1839.88C445.366 1840.34 444.957 1840.71 444.647 1840.99C444.597 1840.63 444.531 1840.17 444.456 1839.61C444.253 1838.12 443.97 1835.97 443.643 1833.3C442.99 1827.97 442.166 1820.59 441.484 1812.42C440.163 1796.58 439.384 1777.8 441.399 1765.14L441.602 1763.94C443.874 1751.28 449.761 1734.45 458.168 1721.74C462.371 1715.38 467.185 1710.09 472.462 1706.85Z" fill="currentColor" stroke="currentColor"/>
</g>
</g>
</g>
</svg>
